# Blender v2.78 (sub 0) OBJ File: 'strartup.blend'
# www.blender.org
mtllib ankle.mtl
o ankle_Cube.007
v 0.720726 0.480430 -0.258849
v 0.720726 0.905175 -0.258849
v 0.720726 0.480430 -1.115528
v 0.720726 0.905175 -1.115528
v 1.734643 0.480430 -0.258849
v 1.734643 0.905175 -0.258849
v 1.734643 0.480430 -1.115528
v 1.734643 0.905175 -1.115528
vn -1.0000 0.0000 0.0000
vn 0.0000 0.0000 -1.0000
vn 1.0000 0.0000 0.0000
vn 0.0000 0.0000 1.0000
vn 0.0000 -1.0000 0.0000
vn 0.0000 1.0000 0.0000
usemtl None
s off
f 1//1 2//1 4//1 3//1
f 3//2 4//2 8//2 7//2
f 7//3 8//3 6//3 5//3
f 5//4 6//4 2//4 1//4
f 3//5 7//5 5//5 1//5
f 8//6 4//6 2//6 6//6
