# Blender v2.78 (sub 0) OBJ File: 'human.blend'
# www.blender.org
mtllib elbow.mtl
o elbow_Cube.005
v 0.604978 7.586390 -4.666141
v 0.604978 7.586390 -2.868017
v 0.604978 8.307195 -4.666141
v 0.604978 8.307195 -2.868017
v 1.340985 7.586390 -4.666141
v 1.340985 7.586390 -2.868017
v 1.340985 8.307195 -4.666141
v 1.340985 8.307195 -2.868017
v 0.604978 8.307195 -4.666141
v 0.604978 8.307195 -2.868017
v 0.604978 7.586390 -4.666141
v 0.604978 7.586390 -2.868017
v 1.340985 8.307195 -4.666141
v 1.340985 8.307195 -2.868017
v 1.340985 7.586390 -4.666141
v 1.340985 7.586390 -2.868017
vn -1.0000 0.0000 0.0000
vn 0.0000 1.0000 0.0000
vn 1.0000 0.0000 0.0000
vn 0.0000 -1.0000 0.0000
vn 0.0000 0.0000 -1.0000
vn 0.0000 0.0000 1.0000
usemtl None
s off
f 1//1 2//1 4//1 3//1
f 3//2 4//2 8//2 7//2
f 7//3 8//3 6//3 5//3
f 5//4 6//4 2//4 1//4
f 3//5 7//5 5//5 1//5
f 8//6 4//6 2//6 6//6
f 9//1 11//1 12//1 10//1
f 11//4 15//4 16//4 12//4
f 15//3 13//3 14//3 16//3
f 13//2 9//2 10//2 14//2
f 11//5 9//5 13//5 15//5
f 16//6 14//6 10//6 12//6
