# Blender v2.78 (sub 0) OBJ File: 'strartup.blend'
# www.blender.org
mtllib shoulder.mtl
o shoulder_Cube.002
v 0.604978 7.586390 -2.899722
v 0.604978 7.586390 -1.101599
v 0.604978 8.307195 -2.899722
v 0.604978 8.307195 -1.101599
v 1.340985 7.586390 -2.899722
v 1.340985 7.586390 -1.101599
v 1.340985 8.307195 -2.899722
v 1.340985 8.307195 -1.101599
vn -1.0000 0.0000 0.0000
vn 0.0000 1.0000 0.0000
vn 1.0000 0.0000 0.0000
vn 0.0000 -1.0000 0.0000
vn 0.0000 0.0000 -1.0000
vn 0.0000 0.0000 1.0000
usemtl None
s off
f 1//1 2//1 4//1 3//1
f 3//2 4//2 8//2 7//2
f 7//3 8//3 6//3 5//3
f 5//4 6//4 2//4 1//4
f 3//5 7//5 5//5 1//5
f 8//6 4//6 2//6 6//6
